<svg width="800" height="800" viewBox="0 0 800 800" fill="none" xmlns="http://www.w3.org/2000/svg">
<path opacity="0.5" d="M266.673 733.333H300.007C394.287 733.333 441.413 733.326 470.703 704.036C499.992 674.747 499.992 627.607 499.992 533.326L499.992 266.66C499.992 172.377 499.992 125.237 470.703 95.9501C441.42 66.6667 394.313 66.6667 300.08 66.6667H300.007H266.673C172.393 66.6667 125.253 66.6667 95.9633 95.9567C66.6733 125.247 66.6733 172.387 66.6733 266.667L66.6733 533.333C66.6733 627.614 66.6733 674.755 95.9633 704.044C125.253 733.333 172.393 733.333 266.673 733.333Z" fill="#1C274C"/>
<path fill-rule="evenodd" clip-rule="evenodd" d="M275 400C275 413.807 286.193 425 300 425L665.752 425L600.397 481.019C589.914 490.005 588.7 505.787 597.685 516.27C606.671 526.753 622.453 527.967 632.936 518.982L749.603 418.983C755.144 414.233 758.333 407.3 758.333 400C758.333 392.703 755.144 385.77 749.603 381.02L632.936 281.02C622.453 272.033 606.671 273.247 597.685 283.73C588.7 294.213 589.914 309.997 600.397 318.983L665.752 375L300 375C286.193 375 275 386.193 275 400Z" fill="#1C274C"/>
</svg>
